# xmcd
#
# Track frame offsets:
#	150
#	18890
#	38855
#	55970
#	76202
#	95322
#	116757
#	136800
#	156257
#	171412
#	188955
#	205837
#	221542
#	239365
#	254355
#
# Disc length: 3659 seconds
#
# Revision: 20
# Processed by: cddbd v1.5.2PL0 Copyright (c) Steve Scherf et al.
# Submitted via: EasyCDDAExtractor 12.0.0.1
#
DISCID=cc0e490f
DTITLE=Various Artist - The Greatest Love CD1
DYEAR=1986
DGENRE=Easy Listening
TTITLE0=Lionel Richie - Hello
TTITLE1=Joan Armatrading - Love and affection
TTITLE2=Simply Red - Holding back the years
TTITLE3=Jennifer Rush - The power of love
TTITLE4=Cliff Richard - We don't talk anymore
TTITLE5=Marvin Gaye - Sexual healing
TTITLE6=Kate Bush - Wuthering heights
TTITLE7=Chris De Burgh - The lady in red
TTITLE8=Double - Captain of her heart
TTITLE9=Elton John - Daniel
TTITLE10=Righteous Brothers - You've lost that lovin' feeling
TTITLE11=Aretha Franklin - I say a little prayer
TTITLE12=The Cars - Drive
TTITLE13=Nilsson - Without You
TTITLE14=Diana Ross and Lionel Richie - Endless Love
EXTD=
EXTT0=
EXTT1=
EXTT2=
EXTT3=
EXTT4=
EXTT5=
EXTT6=
EXTT7=
EXTT8=
EXTT9=
EXTT10=
EXTT11=
EXTT12=
EXTT13=
EXTT14=
PLAYORDER=
